HIERARCHY
ROOT Hips
{
	OFFSET 0.000000 0.000000 0.000000
	CHANNELS 6 Xposition Yposition Zposition Xrotation Yrotation Zrotation
	JOINT LeftUpLeg_virtual
	{
		OFFSET 0.000000 0.000000 0.000000
		CHANNELS 3 Xrotation Yrotation Zrotation
		JOINT LeftUpLeg
		{
			OFFSET 13.026900 -6.336304 -1.092800
			CHANNELS 3 Xrotation Yrotation Zrotation
			JOINT LeftLeg
			{
				OFFSET 0.524474 -46.096886 9.782700
				CHANNELS 3 Xrotation Yrotation Zrotation
				JOINT LeftFoot
				{
					OFFSET -0.524474 -53.427422 -12.948200
					CHANNELS 3 Xrotation Yrotation Zrotation
					JOINT LeftToeBase
					{
						OFFSET 0.192200 -14.009700 16.364100
						CHANNELS 3 Xrotation Yrotation Zrotation
						JOINT LeftToe_End
						{
							OFFSET -1.784700 -0.561700 9.474800
							CHANNELS 3 Xrotation Yrotation Zrotation
							End Site
							{
								OFFSET 0 0 0
							}
						}
					}
				}
			}
		}
	}
	JOINT RightUpLeg_virtual
	{
		OFFSET 0.000000 0.000000 0.000000
		CHANNELS 3 Xrotation Yrotation Zrotation
		JOINT RightUpLeg
		{
			OFFSET -12.883000 -6.336304 -1.092800
			CHANNELS 3 Xrotation Yrotation Zrotation
			JOINT RightLeg
			{
				OFFSET -0.524587 -46.096825 9.782800
				CHANNELS 3 Xrotation Yrotation Zrotation
				JOINT RightFoot
				{
					OFFSET 0.524587 -53.427383 -12.948300
					CHANNELS 3 Xrotation Yrotation Zrotation
					JOINT RightToeBase
					{
						OFFSET -0.192200 -14.009700 16.364100
						CHANNELS 3 Xrotation Yrotation Zrotation
						JOINT RightToe_End
						{
							OFFSET 1.784700 -0.561700 9.474800
							CHANNELS 3 Xrotation Yrotation Zrotation
							End Site
							{
								OFFSET 0 0 0
							}
						}
					}
				}
			}
		}
	}
	JOINT Spine_virtual
	{
		OFFSET 0.000000 0.000000 0.000000
		CHANNELS 3 Xrotation Yrotation Zrotation
		JOINT Spine
		{
			OFFSET 0.072000 7.257294 -0.789700
			CHANNELS 3 Xrotation Yrotation Zrotation
			JOINT Spine1
			{
				OFFSET 0.000000 12.508769 -0.658067
				CHANNELS 3 Xrotation Yrotation Zrotation
				JOINT Spine1_split
				{
					OFFSET 0.000000 12.508769 -0.658067
					CHANNELS 3 Xrotation Yrotation Zrotation
					JOINT Spine2
					{
						OFFSET 0.000000 12.508769 -0.658067
						CHANNELS 3 Xrotation Yrotation Zrotation
						JOINT Neck_virtual
						{
							OFFSET 0.000000 0.000000 0.000000
							CHANNELS 3 Xrotation Yrotation Zrotation
							JOINT Neck
							{
								OFFSET 0.000000 14.033295 7.520400
								CHANNELS 3 Xrotation Yrotation Zrotation
								JOINT Head
								{
									OFFSET 0.000000 8.198502 5.703100
									CHANNELS 3 Xrotation Yrotation Zrotation
									JOINT HeadTop_End
									{
										OFFSET 0.000000 17.760803 13.332701
										CHANNELS 3 Xrotation Yrotation Zrotation
										End Site
										{
											OFFSET 0 0 0
										}
									}
								}
							}
						}
						JOINT LeftShoulder_virtual
						{
							OFFSET 0.000000 0.000000 0.000000
							CHANNELS 3 Xrotation Yrotation Zrotation
							JOINT LeftShoulder
							{
								OFFSET 6.292450 5.785301 -0.669000
								CHANNELS 3 Xrotation Yrotation Zrotation
								JOINT LeftShoulder_split
								{
									OFFSET 6.292450 5.785301 -0.669000
									CHANNELS 3 Xrotation Yrotation Zrotation
									JOINT LeftArm
									{
										OFFSET 13.907140 -6.093903 1.965100
										CHANNELS 3 Xrotation Yrotation Zrotation
										JOINT LeftForeArm
										{
											OFFSET 34.140198 0.000000 0.000000
											CHANNELS 3 Xrotation Yrotation Zrotation
											JOINT LeftHand
											{
												OFFSET 40.960209 0.000000 0.000000
												CHANNELS 3 Xrotation Yrotation Zrotation
												End Site
												{
													OFFSET 0 0 0
												}
											}
										}
									}
								}
							}
						}
						JOINT RightShoulder_virtual
						{
							OFFSET 0.000000 0.000000 0.000000
							CHANNELS 3 Xrotation Yrotation Zrotation
							JOINT RightShoulder
							{
								OFFSET -6.292450 5.785301 -0.669000
								CHANNELS 3 Xrotation Yrotation Zrotation
								JOINT RightShoulder_split
								{
									OFFSET -6.292450 5.785301 -0.669000
									CHANNELS 3 Xrotation Yrotation Zrotation
									JOINT RightArm
									{
										OFFSET -13.907140 -6.093903 1.965100
										CHANNELS 3 Xrotation Yrotation Zrotation
										JOINT RightForeArm
										{
											OFFSET -34.140198 0.000000 0.000000
											CHANNELS 3 Xrotation Yrotation Zrotation
											JOINT RightHand
											{
												OFFSET -40.960209 0.000000 0.000000
												CHANNELS 3 Xrotation Yrotation Zrotation
												End Site
												{
													OFFSET 0 0 0
												}
											}
										}
									}
								}
							}
						}
					}
				}
			}
		}
	}
}
MOTION
Frames: 9
Frame Time: 0.03333333
7.682073 117.765762 -18.545238 0.000000 0.000000 0.000000 3.001423 24.500932 1.323741 -10.466912 8.697046 0.649433 14.821645 7.873129 5.811504 -3.224243 -0.410278 -10.234596 -4.561510 -2.611383 2.485649 0.000000 0.000000 0.000000 3.696679 21.010184 1.089124 -0.944662 -7.129704 2.255797 10.804462 1.424239 -1.969302 -13.521965 -25.209757 10.950297 1.182988 2.189990 -6.779832 0.000000 0.000000 0.000000 4.615820 25.599991 0.357975 7.693036 1.626052 2.062333 3.390465 2.470109 -1.056819 0.204959 -1.106087 0.129906 0.000000 0.000000 0.000000 3.690640 6.708751 -0.281657 -14.884869 18.167603 9.470322 -127.481506 -58.399299 -163.451181 0.000000 0.000000 0.000000 3.143284 2.423213 -0.284961 -0.949031 -31.322056 -12.219825 2.387939 -0.000668 -5.056130 20.487957 19.655333 -75.558599 -5.567227 -33.513792 -3.306637 0.000000 0.000000 0.000000 -2.056863 2.081229 1.088346 -5.553160 8.242654 19.476518 -17.425184 -8.345121 3.431317 41.470784 8.180507 47.704210 -16.511421 31.260519 26.848200 0.000000 0.000000 0.000000 
7.631245 117.720222 -18.411854 0.000000 0.000000 0.000000 3.033985 24.636320 1.315912 -10.407426 8.661560 0.646193 14.811395 7.961172 5.814287 -3.258936 -0.381211 -10.075864 -4.568057 -2.611716 2.498769 0.000000 0.000000 0.000000 3.672865 21.059650 1.085619 -0.927456 -7.162041 2.335183 10.850382 1.331117 -1.982661 -13.581521 -25.228472 10.918075 0.985412 2.224894 -6.823627 0.000000 0.000000 0.000000 4.621005 25.714832 0.364429 7.663460 1.641358 1.994642 3.395651 2.458991 -1.108546 0.229028 -1.117499 0.115786 0.000000 0.000000 0.000000 3.766817 6.717637 -0.238747 -14.906772 18.190237 9.526373 -127.581978 -58.490421 -163.514346 0.000000 0.000000 0.000000 3.138421 2.432052 -0.320056 -0.907095 -31.208097 -12.285069 1.973680 -0.063019 -4.955627 20.744497 19.535060 -75.560388 -5.722758 -33.823349 -3.394133 0.000000 0.000000 0.000000 -2.130462 2.064867 1.168581 -5.510912 8.027912 19.431721 -17.395727 -8.107645 3.502223 41.545128 7.726199 47.976984 -16.485597 31.120883 26.857774 0.000000 0.000000 0.000000 
7.563277 117.685188 -18.257191 0.000000 0.000000 0.000000 3.105149 24.776730 1.251556 -10.399246 8.543830 0.686888 14.783963 8.127958 5.842391 -3.281557 -0.297038 -10.034911 -4.658393 -2.602830 2.497846 0.000000 0.000000 0.000000 3.723648 21.274719 1.007361 -0.841472 -7.153669 2.467895 10.791824 1.197529 -1.982583 -13.536385 -25.212011 11.035870 0.732311 2.240690 -6.785763 0.000000 0.000000 0.000000 4.591468 25.897531 0.334929 7.610064 1.672637 1.859366 3.394588 2.542048 -1.068937 0.220886 -1.097537 0.115706 0.000000 0.000000 0.000000 3.856921 6.812501 -0.157424 -14.945810 18.099376 9.605773 -127.875744 -58.610229 -163.421387 0.000000 0.000000 0.000000 3.084029 2.516694 -0.325351 -0.911795 -31.207612 -12.397006 1.636544 -0.214153 -4.774849 20.978894 19.495583 -75.628629 -5.994180 -33.826006 -3.570595 0.000000 0.000000 0.000000 -2.181352 2.155433 1.334067 -5.508592 7.604513 19.365796 -17.381424 -7.838463 3.619209 41.609994 7.153214 48.240800 -16.580071 31.191199 27.070591 0.000000 0.000000 0.000000 
7.498932 117.669975 -18.092480 0.000000 0.000000 0.000000 3.199907 24.878781 1.132399 -10.436817 8.343255 0.759794 14.746443 8.357782 5.882603 -3.312114 -0.176178 -10.114609 -4.804302 -2.585801 2.494527 0.000000 0.000000 0.000000 3.817181 21.547637 0.875176 -0.721605 -7.109457 2.629956 10.610156 1.027052 -1.986393 -13.496781 -25.160156 11.221534 0.566689 2.233737 -6.674093 0.000000 0.000000 0.000000 4.554517 26.061167 0.261957 7.538444 1.711938 1.692378 3.391891 2.716911 -0.948678 0.186054 -1.064344 0.120941 0.000000 0.000000 0.000000 3.957955 6.987424 -0.059139 -15.000012 17.896361 9.712224 -128.374307 -58.698816 -163.198682 0.000000 0.000000 0.000000 2.981810 2.673051 -0.299044 -0.959750 -31.345125 -12.511627 1.365564 -0.444621 -4.559170 21.063596 19.521367 -75.669835 -6.326662 -33.457169 -3.797922 0.000000 0.000000 0.000000 -2.212698 2.342302 1.548865 -5.552488 7.027708 19.258142 -17.376691 -7.727545 3.827307 41.655654 6.681438 48.484648 -16.757666 31.512249 27.391502 0.000000 0.000000 0.000000 
7.448476 117.666580 -17.898075 0.000000 0.000000 0.000000 3.322341 24.943154 0.973781 -10.536283 8.060452 0.835306 14.751795 8.607550 5.934305 -3.352326 -0.050196 -10.296610 -4.928895 -2.563353 2.493168 0.000000 0.000000 0.000000 3.927707 21.763354 0.716867 -0.607181 -7.063441 2.795924 10.344336 0.802107 -2.006540 -13.534829 -25.079720 11.396566 0.563001 2.206366 -6.507727 0.000000 0.000000 0.000000 4.552839 26.166885 0.126846 7.459657 1.747961 1.535281 3.397013 2.960355 -0.777491 0.155585 -1.000277 0.108515 0.000000 0.000000 0.000000 4.068273 7.223800 0.031169 -15.031059 17.595416 9.841181 -129.117213 -58.687082 -162.964270 0.000000 0.000000 0.000000 2.878320 2.883503 -0.252413 -1.024297 -31.593610 -12.572190 1.283519 -0.678329 -4.382796 20.886688 19.506050 -75.576002 -6.657903 -32.810808 -4.020983 0.000000 0.000000 0.000000 -2.227751 2.601790 1.770720 -5.628223 6.364717 19.053364 -17.308548 -7.827170 4.119153 41.677408 6.463790 48.690981 -16.981831 32.174808 27.754743 0.000000 0.000000 0.000000 
7.408872 117.691261 -17.683331 0.000000 0.000000 0.000000 3.469628 25.007981 0.790779 -10.695128 7.717991 0.889419 14.835401 8.854819 5.985311 -3.436552 0.046694 -10.517065 -4.994083 -2.541910 2.499788 0.000000 0.000000 0.000000 4.056316 21.820098 0.561252 -0.544054 -7.049588 2.941073 10.085502 0.513029 -2.040228 -13.597333 -24.976626 11.585064 0.636099 2.170016 -6.310831 0.000000 0.000000 0.000000 4.599783 26.213219 -0.060948 7.397868 1.765422 1.426340 3.415489 3.231479 -0.601613 0.157443 -0.921044 0.096738 0.000000 0.000000 0.000000 4.183623 7.496023 0.088922 -15.013719 17.219522 9.966004 -130.205440 -58.548723 -162.945528 0.000000 0.000000 0.000000 2.810099 3.118985 -0.203775 -1.071081 -31.916518 -12.524707 1.375301 -0.810804 -4.294882 20.410439 19.340785 -75.287495 -6.863810 -32.024237 -4.152023 0.000000 0.000000 0.000000 -2.217813 2.901871 1.954751 -5.720490 5.708251 18.728843 -17.185873 -8.152409 4.450586 41.663751 6.592589 48.927080 -17.188137 33.191028 28.057990 0.000000 0.000000 0.000000 
7.396553 117.715836 -17.492886 0.000000 0.000000 0.000000 3.636339 25.069576 0.592794 -10.888231 7.370955 0.921958 14.990457 9.101902 6.021495 -3.575808 0.081650 -10.677176 -5.057960 -2.529789 2.523995 0.000000 0.000000 0.000000 4.178145 21.712254 0.423838 -0.583508 -7.078100 3.038235 9.942734 0.197865 -2.084092 -13.604100 -24.854164 11.900321 0.602867 2.135392 -6.113427 0.000000 0.000000 0.000000 4.720850 26.175940 -0.287021 7.371237 1.743524 1.391012 3.456726 3.504645 -0.461761 0.171557 -0.839656 0.081717 0.000000 0.000000 0.000000 4.292846 7.781652 0.093785 -14.926253 16.780487 10.074564 -131.715021 -58.296901 -163.349780 0.000000 0.000000 0.000000 2.819297 3.342119 -0.174677 -1.073228 -32.246204 -12.344912 1.607469 -0.774519 -4.394378 19.628616 18.949880 -74.832065 -6.808811 -31.293202 -4.091218 0.000000 0.000000 0.000000 -2.178587 3.211431 2.075160 -5.795104 5.142503 18.331312 -17.084762 -8.530195 4.811507 41.554400 6.909677 49.170474 -17.327947 34.455063 28.218981 0.000000 0.000000 0.000000 
7.400481 117.689407 -17.343258 0.000000 0.000000 0.000000 3.822795 25.060816 0.405981 -11.116789 7.039041 0.935857 15.226454 9.331229 6.032756 -3.701718 0.039928 -10.742670 -5.184752 -2.532668 2.553619 0.000000 0.000000 0.000000 4.310275 21.502498 0.287895 -0.735310 -7.118359 3.090045 10.023525 -0.119448 -2.136403 -13.570048 -24.702112 12.364866 0.392219 2.109024 -5.926175 0.000000 0.000000 0.000000 4.897361 26.046052 -0.516982 7.412661 1.662858 1.433135 3.522853 3.752703 -0.384333 0.187604 -0.763623 0.072471 0.000000 0.000000 0.000000 4.387717 8.054473 0.037131 -14.752324 16.325998 10.167134 -133.725337 -57.905353 -164.349337 0.000000 0.000000 0.000000 2.917219 3.533406 -0.170430 -1.014200 -32.514234 -12.030201 1.982910 -0.612741 -4.640068 18.605295 18.374052 -74.319732 -6.414685 -30.745174 -3.771029 0.000000 0.000000 0.000000 -2.104833 3.494212 2.115464 -5.838968 4.743247 17.922843 -17.126773 -8.924568 5.231918 41.260462 7.109400 49.383180 -17.460229 35.919070 28.256703 0.000000 0.000000 0.000000 
7.404479 117.586258 -17.245708 0.000000 0.000000 0.000000 4.022710 24.887124 0.249152 -11.372898 6.758572 0.946033 15.561640 9.549770 6.008143 -3.782315 -0.056372 -10.701409 -5.388743 -2.547741 2.564114 0.000000 0.000000 0.000000 4.459510 21.232633 0.141996 -1.001159 -7.164865 3.117971 10.374776 -0.448638 -2.195984 -13.600983 -24.497023 12.838853 0.140112 2.089361 -5.729256 0.000000 0.000000 0.000000 5.120874 25.823958 -0.727183 7.561252 1.505233 1.534602 3.605759 3.966192 -0.381969 0.191531 -0.721648 0.069242 0.000000 0.000000 0.000000 4.461362 8.305522 -0.083744 -14.510703 15.905390 10.248807 -136.229243 -57.363740 -165.932766 0.000000 0.000000 0.000000 3.085994 3.690390 -0.187133 -0.900637 -32.684511 -11.637887 2.454312 -0.382701 -4.986937 17.433107 17.796848 -73.873099 -5.621851 -30.452556 -3.162685 0.000000 0.000000 0.000000 -1.993380 3.725209 2.067921 -5.845970 4.573675 17.610249 -17.425886 -9.278103 5.705636 40.723213 6.775973 49.372770 -17.641091 37.446164 28.192009 0.000000 0.000000 0.000000 
